<svg width="24" height="24" viewBox="0 0 24 24" fill="none" xmlns="http://www.w3.org/2000/svg">
<path d="M18.6039 12.9699V18.0002H15.6874V13.307C15.6874 12.1286 15.2664 11.3238 14.2104 11.3238C13.4046 11.3238 12.9258 11.8656 12.7144 12.3902C12.6376 12.5777 12.6179 12.8381 12.6179 13.101V18H9.70117C9.70117 18 9.74032 10.0512 9.70117 9.22843H12.6181V10.4714C12.6122 10.4812 12.6039 10.4908 12.5987 10.5002H12.6181V10.4714C13.0057 9.87506 13.6969 9.02246 15.2466 9.02246C17.1654 9.02246 18.6039 10.2761 18.6039 12.9699V12.9699Z" fill="black"/>
<path d="M6.65039 5C5.65272 5 5 5.65489 5 6.51533C5 7.35749 5.6338 8.0313 6.61211 8.0313H6.63104C7.64829 8.0313 8.28078 7.35749 8.28078 6.51533C8.26142 5.65489 7.64829 5 6.65039 5V5Z" fill="black"/>
<path d="M5.17383 17.9998H8.08942V9.22803H5.17383V17.9998Z" fill="black"/>
</svg>
