<svg width="24" height="24" viewBox="0 0 24 24" fill="none" xmlns="http://www.w3.org/2000/svg">
<path fill-rule="evenodd" clip-rule="evenodd" d="M14.0718 17.5126C13.4273 17.7549 12.7291 17.8874 12 17.8874C10.9962 17.8874 10.051 17.6362 9.22397 17.1932C10.4399 15.3687 11.9051 14.2311 13.3753 13.6148C13.6808 14.7486 13.8981 16.011 14.0718 17.5126ZM14.4314 13.2588C14.7373 14.377 14.956 15.593 15.1294 16.9878C16.4587 16.152 17.4304 14.7994 17.7626 13.2119C16.7768 12.9665 15.6221 12.9521 14.4314 13.2588ZM17.8866 12.0977C17.8872 12.0652 17.8874 12.0326 17.8874 12C17.8874 10.8201 17.5403 9.72126 16.9427 8.80003C16.1387 9.65096 15.0182 10.4221 13.635 10.9999C13.6553 11.0457 13.6753 11.0917 13.6951 11.1377C13.8437 11.4837 13.9793 11.8348 14.1033 12.194C15.4273 11.8439 16.7329 11.8358 17.8866 12.0977ZM8.29732 16.5776C9.66168 14.5306 11.3406 13.2384 13.0479 12.5464C12.9333 12.2153 12.8087 11.8933 12.6728 11.5769C12.645 11.5121 12.6166 11.4475 12.5878 11.383C10.7636 11.9614 8.57351 12.2162 6.11283 11.946L6.11258 12C6.11258 13.8486 6.96458 15.4982 8.29732 16.5776ZM12.0873 10.3738C10.456 10.8668 8.48165 11.0884 6.22697 10.8393C6.59492 8.99903 7.82081 7.46849 9.46988 6.68245C10.6032 8.02477 11.4457 9.1966 12.0873 10.3738ZM10.5863 6.28341C11.6675 7.59123 12.5004 8.77718 13.1479 9.99698C14.4947 9.44214 15.5422 8.69809 16.2422 7.91767C15.1712 6.80493 13.6664 6.11258 12 6.11258C11.5127 6.11258 11.0392 6.17179 10.5863 6.28341ZM19 12C19 15.866 15.866 19 12 19C8.13401 19 5 15.866 5 12C5 8.13401 8.13401 5 12 5C15.866 5 19 8.13401 19 12Z" fill="black"/>
</svg>
