<svg width="24" height="24" viewBox="0 0 24 24" fill="none" xmlns="http://www.w3.org/2000/svg">
<path d="M18.9643 10.8548C18.6686 8.05587 16.4668 5.80127 13.6326 5.18258C13.2483 5.0987 12.8521 5.06905 12.4615 5.01386C12.4473 5.01181 12.4339 5.00467 12.4201 5H11.5788C11.3187 5.03212 11.0575 5.05669 10.7987 5.09747C7.94764 5.54567 5.53182 7.67603 5.07572 10.5518C5.03365 10.8172 5.02441 11.0877 5 11.3558V11.7402C5.01545 11.9056 5.03103 12.071 5.04648 12.2364C5.06593 12.3652 5.08041 12.4948 5.10551 12.6223C5.41749 14.2093 6.24211 15.4808 7.50367 16.4845C7.54339 16.5161 7.57511 16.5835 7.57539 16.6343C7.5798 17.4096 7.57815 18.185 7.58118 18.9604C7.58132 18.9743 7.63373 19.0056 7.64504 18.9991C8.3865 18.5831 9.12617 18.1635 9.86708 17.7462C9.89714 17.7292 9.94169 17.7173 9.97328 17.7259C11.0321 18.0146 12.1051 18.088 13.1872 17.9029C15.3257 17.5369 17.0041 16.4712 18.1426 14.6122C18.4936 14.039 18.7332 13.4174 18.8629 12.7564C19.0064 12.1283 19.0319 11.4935 18.9643 10.8548ZM12.7689 13.6276C12.7481 13.6487 12.6688 13.6505 12.6491 13.6302C12.0846 13.0472 11.5246 12.4596 10.9608 11.876C10.9394 11.854 10.8754 11.8458 10.8477 11.8609C9.76212 12.4496 8.67848 13.042 7.5947 13.6339C7.56753 13.6487 7.54146 13.6653 7.51498 13.6813L7.51443 13.6822L7.51402 13.6818C7.51346 13.6822 7.51291 13.6826 7.51236 13.6829C7.51195 13.6817 7.51167 13.6804 7.51126 13.6792C7.51222 13.6802 7.51319 13.681 7.51402 13.6818C7.51402 13.6818 7.5147 13.6815 7.51498 13.6813C7.53084 13.6564 7.54353 13.6283 7.56353 13.607C7.98653 13.1586 8.4105 12.7111 8.83405 12.2635C9.50062 11.5627 10.1671 10.8619 10.8335 10.1611C10.9582 10.0299 11.0815 9.897 11.2097 9.76933C11.2249 9.75437 11.2817 9.75437 11.2968 9.76947C11.8711 10.3493 12.4423 10.9322 13.017 11.5116C13.0381 11.5329 13.0994 11.5413 13.1263 11.5267C14.2052 10.9452 15.2825 10.3602 16.3601 9.77592C16.3773 9.76659 16.3965 9.76041 16.4149 9.75272C16.4035 9.77002 16.3946 9.78951 16.3806 9.80434C15.4606 10.7798 14.5402 11.755 13.6199 12.7303C13.6043 12.7468 13.5904 12.7649 13.5756 12.7822C13.3076 13.0649 13.041 13.3489 12.7689 13.6276Z" fill="black"/>
</svg>
