<svg width="86" height="86" viewBox="0 0 86 86" fill="none" xmlns="http://www.w3.org/2000/svg">
<circle cx="43" cy="43" r="43" fill="#237BE5"/>
<path d="M25 64.5001C23.4 65.7001 20.6667 72.0001 19.5 75.0001C21.8333 77.6667 29.7 83.0001 42.5 83.0001C55.3 83.0001 63.8333 78.3334 66.5 76.0001C66.6667 75.6667 66.8 74.1001 66 70.5001C65 66.0001 55 59.5001 44.5 58.5001C34 57.5001 27 63.0001 25 64.5001Z" fill="#7FB6F6"/>
<circle cx="43" cy="43" r="40" stroke="black" stroke-width="6"/>
<circle cx="43" cy="43" r="15" fill="#7FB6F6" stroke="black" stroke-width="6"/>
<path d="M66 74C64.2215 64.9303 54.5807 58 42.9544 58C31.5137 58 21.9955 64.7109 20 73.5676" stroke="black" stroke-width="6"/>
</svg>
