<svg width="528" height="320" viewBox="0 0 528 320" fill="none" xmlns="http://www.w3.org/2000/svg">
<path d="M64 5H464C472.284 5 479 11.7157 479 20V315H49V20C49 11.7157 55.7157 5 64 5Z" fill="#227AE6" stroke="black" stroke-width="10"/>
<path opacity="0.1" d="M219.578 159.474L196.056 192.344C192.268 197.639 196.052 205 202.562 205H350.954C357.461 205 361.246 197.645 357.464 192.35L305.635 119.789C302.409 115.273 295.677 115.333 292.533 119.907L255.877 173.224C252.758 177.761 246.096 177.864 242.837 173.427L232.532 159.395C229.311 155.008 222.745 155.049 219.578 159.474Z" fill="black" stroke="black" stroke-width="8" stroke-linejoin="round"/>
<path d="M206.578 148.474L183.056 181.344C179.268 186.639 183.052 194 189.562 194H337.954C344.461 194 348.246 186.645 344.464 181.35L292.635 108.789C289.409 104.273 282.677 104.333 279.533 108.907L242.877 162.224C239.758 166.761 233.096 166.864 229.837 162.427L219.532 148.395C216.311 144.008 209.745 144.049 206.578 148.474Z" fill="#7FB6F7" stroke="black" stroke-width="8" stroke-linejoin="round"/>
<path d="M20 315H508C516.284 315 523 308.284 523 300V287H5V300C5 308.284 11.7157 315 20 315Z" fill="white" stroke="black" stroke-width="10"/>
</svg>
