<svg width="360" height="260" viewBox="0 0 360 260" fill="none" xmlns="http://www.w3.org/2000/svg">
<rect x="3" y="3" width="354" height="254" rx="5" fill="white" stroke="#EEF2F5" stroke-width="6"/>
<circle cx="179" cy="92" r="50" fill="#FF5975" stroke="black" stroke-width="6"/>
<g opacity="0.1">
<rect x="172.95" y="81" width="37.5734" height="7" rx="3.5" transform="rotate(45 172.95 81)" fill="black"/>
<rect width="37.5734" height="7" rx="3.5" transform="matrix(-0.707107 0.707107 0.707107 0.707107 194.568 81)" fill="black"/>
</g>
<rect x="167.95" y="76" width="37.5734" height="7" rx="3.5" transform="rotate(45 167.95 76)" fill="white"/>
<rect width="37.5734" height="7" rx="3.5" transform="matrix(-0.707107 0.707107 0.707107 0.707107 189.568 76)" fill="white"/>
<path d="M107.667 177V164.115H110.269V177H107.667ZM112.554 167.666H114.83V168.94C115.645 167.95 116.614 167.455 117.739 167.455C118.337 167.455 118.855 167.578 119.295 167.824C119.734 168.07 120.095 168.442 120.376 168.94C120.786 168.442 121.229 168.07 121.703 167.824C122.178 167.578 122.685 167.455 123.224 167.455C123.909 167.455 124.489 167.596 124.964 167.877C125.438 168.152 125.793 168.56 126.027 169.099C126.197 169.497 126.282 170.142 126.282 171.032V177H123.812V171.665C123.812 170.739 123.728 170.142 123.558 169.872C123.329 169.521 122.978 169.345 122.503 169.345C122.157 169.345 121.832 169.45 121.527 169.661C121.223 169.872 121.003 170.183 120.868 170.593C120.733 170.997 120.666 171.639 120.666 172.518V177H118.196V171.885C118.196 170.977 118.152 170.391 118.064 170.127C117.977 169.863 117.839 169.667 117.651 169.538C117.47 169.409 117.221 169.345 116.904 169.345C116.523 169.345 116.181 169.447 115.876 169.652C115.571 169.857 115.352 170.153 115.217 170.54C115.088 170.927 115.023 171.568 115.023 172.465V177H112.554V167.666ZM130.598 170.514L128.356 170.109C128.608 169.207 129.042 168.539 129.657 168.105C130.272 167.672 131.187 167.455 132.399 167.455C133.501 167.455 134.321 167.587 134.86 167.851C135.399 168.108 135.777 168.439 135.994 168.844C136.217 169.242 136.328 169.978 136.328 171.05L136.302 173.933C136.302 174.753 136.34 175.359 136.416 175.752C136.498 176.139 136.647 176.555 136.864 177H134.421C134.356 176.836 134.277 176.593 134.184 176.271C134.143 176.124 134.113 176.027 134.096 175.98C133.674 176.391 133.223 176.698 132.742 176.903C132.262 177.108 131.749 177.211 131.204 177.211C130.243 177.211 129.484 176.95 128.928 176.429C128.377 175.907 128.102 175.248 128.102 174.451C128.102 173.924 128.228 173.455 128.479 173.045C128.731 172.629 129.083 172.312 129.534 172.096C129.991 171.873 130.647 171.68 131.503 171.516C132.657 171.299 133.457 171.097 133.902 170.909V170.663C133.902 170.188 133.785 169.852 133.551 169.652C133.316 169.447 132.874 169.345 132.224 169.345C131.784 169.345 131.441 169.433 131.195 169.608C130.949 169.778 130.75 170.08 130.598 170.514ZM133.902 172.518C133.586 172.623 133.085 172.749 132.399 172.896C131.714 173.042 131.266 173.186 131.055 173.326C130.732 173.555 130.571 173.845 130.571 174.196C130.571 174.542 130.7 174.841 130.958 175.093C131.216 175.345 131.544 175.471 131.942 175.471C132.388 175.471 132.812 175.324 133.217 175.031C133.516 174.809 133.712 174.536 133.806 174.214C133.87 174.003 133.902 173.602 133.902 173.01V172.518ZM138.543 177.615L141.364 177.958C141.411 178.286 141.52 178.512 141.689 178.635C141.924 178.811 142.293 178.898 142.797 178.898C143.441 178.898 143.925 178.802 144.247 178.608C144.464 178.479 144.628 178.271 144.739 177.984C144.815 177.779 144.854 177.401 144.854 176.851V175.488C144.115 176.496 143.184 177 142.059 177C140.805 177 139.812 176.47 139.079 175.409C138.505 174.571 138.218 173.528 138.218 172.28C138.218 170.716 138.593 169.521 139.343 168.694C140.099 167.868 141.036 167.455 142.155 167.455C143.31 167.455 144.262 167.962 145.012 168.976V167.666H147.323V176.042C147.323 177.144 147.232 177.967 147.051 178.512C146.869 179.057 146.614 179.484 146.286 179.795C145.958 180.105 145.519 180.349 144.968 180.524C144.423 180.7 143.731 180.788 142.894 180.788C141.312 180.788 140.189 180.516 139.527 179.971C138.865 179.432 138.534 178.746 138.534 177.914C138.534 177.832 138.537 177.732 138.543 177.615ZM140.749 172.14C140.749 173.13 140.939 173.856 141.32 174.319C141.707 174.776 142.182 175.005 142.744 175.005C143.348 175.005 143.857 174.771 144.273 174.302C144.689 173.827 144.897 173.127 144.897 172.201C144.897 171.234 144.698 170.517 144.3 170.048C143.901 169.579 143.397 169.345 142.788 169.345C142.196 169.345 141.707 169.576 141.32 170.039C140.939 170.496 140.749 171.196 140.749 172.14ZM155.181 174.029L157.642 174.442C157.325 175.345 156.824 176.033 156.139 176.508C155.459 176.977 154.606 177.211 153.581 177.211C151.958 177.211 150.757 176.681 149.978 175.62C149.362 174.771 149.055 173.698 149.055 172.403C149.055 170.856 149.459 169.646 150.268 168.773C151.076 167.895 152.099 167.455 153.335 167.455C154.724 167.455 155.819 167.915 156.622 168.835C157.425 169.749 157.809 171.152 157.773 173.045H151.586C151.604 173.777 151.803 174.349 152.184 174.759C152.564 175.163 153.039 175.365 153.607 175.365C153.994 175.365 154.319 175.26 154.583 175.049C154.847 174.838 155.046 174.498 155.181 174.029ZM155.321 171.533C155.304 170.818 155.119 170.276 154.768 169.907C154.416 169.532 153.988 169.345 153.484 169.345C152.945 169.345 152.5 169.541 152.148 169.934C151.797 170.326 151.624 170.859 151.63 171.533H155.321ZM169.085 167.666V169.635H167.397V173.396C167.397 174.158 167.412 174.604 167.441 174.732C167.477 174.855 167.55 174.958 167.661 175.04C167.778 175.122 167.919 175.163 168.083 175.163C168.312 175.163 168.643 175.084 169.076 174.926L169.287 176.842C168.713 177.088 168.062 177.211 167.336 177.211C166.891 177.211 166.489 177.138 166.132 176.991C165.774 176.839 165.511 176.646 165.341 176.411C165.177 176.171 165.062 175.849 164.998 175.444C164.945 175.157 164.919 174.577 164.919 173.704V169.635H163.785V167.666H164.919V165.812L167.397 164.37V167.666H169.085ZM170.228 172.201C170.228 171.381 170.43 170.587 170.834 169.819C171.238 169.052 171.81 168.466 172.548 168.062C173.292 167.657 174.121 167.455 175.035 167.455C176.447 167.455 177.604 167.915 178.507 168.835C179.409 169.749 179.86 170.906 179.86 172.307C179.86 173.719 179.403 174.891 178.489 175.822C177.581 176.748 176.436 177.211 175.053 177.211C174.197 177.211 173.38 177.018 172.601 176.631C171.827 176.244 171.238 175.679 170.834 174.935C170.43 174.185 170.228 173.273 170.228 172.201ZM172.759 172.333C172.759 173.259 172.979 173.968 173.418 174.46C173.857 174.952 174.399 175.198 175.044 175.198C175.688 175.198 176.228 174.952 176.661 174.46C177.101 173.968 177.32 173.253 177.32 172.315C177.32 171.401 177.101 170.698 176.661 170.206C176.228 169.714 175.688 169.468 175.044 169.468C174.399 169.468 173.857 169.714 173.418 170.206C172.979 170.698 172.759 171.407 172.759 172.333ZM185.942 174.337L188.421 173.959C188.526 174.439 188.74 174.806 189.062 175.058C189.385 175.304 189.836 175.427 190.416 175.427C191.055 175.427 191.535 175.31 191.857 175.075C192.074 174.911 192.183 174.691 192.183 174.416C192.183 174.229 192.124 174.073 192.007 173.95C191.884 173.833 191.608 173.725 191.181 173.625C189.188 173.186 187.926 172.784 187.393 172.421C186.654 171.917 186.285 171.217 186.285 170.32C186.285 169.512 186.604 168.832 187.243 168.281C187.882 167.73 188.872 167.455 190.214 167.455C191.491 167.455 192.44 167.663 193.062 168.079C193.683 168.495 194.11 169.11 194.345 169.925L192.016 170.355C191.916 169.992 191.726 169.714 191.444 169.521C191.169 169.327 190.773 169.23 190.258 169.23C189.607 169.23 189.142 169.321 188.86 169.503C188.673 169.632 188.579 169.799 188.579 170.004C188.579 170.18 188.661 170.329 188.825 170.452C189.048 170.616 189.815 170.848 191.128 171.146C192.446 171.445 193.366 171.812 193.888 172.245C194.403 172.685 194.661 173.297 194.661 174.082C194.661 174.938 194.304 175.673 193.589 176.288C192.874 176.903 191.816 177.211 190.416 177.211C189.145 177.211 188.137 176.953 187.393 176.438C186.654 175.922 186.171 175.222 185.942 174.337ZM202.976 177V175.603C202.636 176.101 202.188 176.493 201.631 176.78C201.08 177.067 200.497 177.211 199.882 177.211C199.255 177.211 198.692 177.073 198.194 176.798C197.696 176.522 197.336 176.136 197.113 175.638C196.891 175.14 196.779 174.451 196.779 173.572V167.666H199.249V171.955C199.249 173.268 199.293 174.073 199.381 174.372C199.475 174.665 199.642 174.899 199.882 175.075C200.122 175.245 200.427 175.33 200.796 175.33C201.218 175.33 201.596 175.216 201.93 174.987C202.264 174.753 202.492 174.466 202.615 174.126C202.738 173.78 202.8 172.939 202.8 171.604V167.666H205.27V177H202.976ZM207.766 167.666H210.068V169.037C210.367 168.568 210.771 168.188 211.281 167.895C211.791 167.602 212.356 167.455 212.978 167.455C214.062 167.455 214.981 167.88 215.737 168.729C216.493 169.579 216.871 170.763 216.871 172.28C216.871 173.839 216.49 175.052 215.729 175.919C214.967 176.78 214.044 177.211 212.96 177.211C212.444 177.211 211.976 177.108 211.554 176.903C211.138 176.698 210.698 176.347 210.235 175.849V180.551H207.766V167.666ZM210.209 172.175C210.209 173.224 210.417 174 210.833 174.504C211.249 175.002 211.756 175.251 212.354 175.251C212.928 175.251 213.405 175.022 213.786 174.565C214.167 174.103 214.357 173.347 214.357 172.298C214.357 171.319 214.161 170.593 213.769 170.118C213.376 169.644 212.89 169.406 212.31 169.406C211.706 169.406 211.205 169.641 210.807 170.109C210.408 170.572 210.209 171.261 210.209 172.175ZM218.77 167.666H221.072V169.037C221.371 168.568 221.775 168.188 222.285 167.895C222.795 167.602 223.36 167.455 223.981 167.455C225.065 167.455 225.985 167.88 226.741 168.729C227.497 169.579 227.875 170.763 227.875 172.28C227.875 173.839 227.494 175.052 226.732 175.919C225.971 176.78 225.048 177.211 223.964 177.211C223.448 177.211 222.979 177.108 222.558 176.903C222.142 176.698 221.702 176.347 221.239 175.849V180.551H218.77V167.666ZM221.213 172.175C221.213 173.224 221.421 174 221.837 174.504C222.253 175.002 222.76 175.251 223.357 175.251C223.932 175.251 224.409 175.022 224.79 174.565C225.171 174.103 225.361 173.347 225.361 172.298C225.361 171.319 225.165 170.593 224.772 170.118C224.38 169.644 223.894 169.406 223.313 169.406C222.71 169.406 222.209 169.641 221.811 170.109C221.412 170.572 221.213 171.261 221.213 172.175ZM229.272 172.201C229.272 171.381 229.475 170.587 229.879 169.819C230.283 169.052 230.854 168.466 231.593 168.062C232.337 167.657 233.166 167.455 234.08 167.455C235.492 167.455 236.649 167.915 237.552 168.835C238.454 169.749 238.905 170.906 238.905 172.307C238.905 173.719 238.448 174.891 237.534 175.822C236.626 176.748 235.48 177.211 234.098 177.211C233.242 177.211 232.425 177.018 231.646 176.631C230.872 176.244 230.283 175.679 229.879 174.935C229.475 174.185 229.272 173.273 229.272 172.201ZM231.804 172.333C231.804 173.259 232.023 173.968 232.463 174.46C232.902 174.952 233.444 175.198 234.089 175.198C234.733 175.198 235.272 174.952 235.706 174.46C236.146 173.968 236.365 173.253 236.365 172.315C236.365 171.401 236.146 170.698 235.706 170.206C235.272 169.714 234.733 169.468 234.089 169.468C233.444 169.468 232.902 169.714 232.463 170.206C232.023 170.698 231.804 171.407 231.804 172.333ZM243.212 177H240.742V167.666H243.036V168.993C243.429 168.366 243.78 167.953 244.091 167.754C244.407 167.555 244.765 167.455 245.163 167.455C245.726 167.455 246.268 167.61 246.789 167.921L246.024 170.074C245.608 169.805 245.222 169.67 244.864 169.67C244.519 169.67 244.226 169.767 243.985 169.96C243.745 170.147 243.555 170.49 243.414 170.988C243.279 171.486 243.212 172.529 243.212 174.117V177ZM252.142 167.666V169.635H250.454V173.396C250.454 174.158 250.469 174.604 250.498 174.732C250.533 174.855 250.606 174.958 250.718 175.04C250.835 175.122 250.976 175.163 251.14 175.163C251.368 175.163 251.699 175.084 252.133 174.926L252.344 176.842C251.77 177.088 251.119 177.211 250.393 177.211C249.947 177.211 249.546 177.138 249.188 176.991C248.831 176.839 248.567 176.646 248.397 176.411C248.233 176.171 248.119 175.849 248.055 175.444C248.002 175.157 247.976 174.577 247.976 173.704V169.635H246.842V167.666H247.976V165.812L250.454 164.37V167.666H252.142Z" fill="black"/>
<rect x="101" y="196" width="158" height="7" rx="3.5" fill="#CAD6E2"/>
<rect x="113" y="215" width="134" height="7" rx="3.5" fill="#CAD6E2"/>
</svg>
