<svg width="100" height="100" viewBox="0 0 100 100" fill="none" xmlns="http://www.w3.org/2000/svg">
<rect x="3" y="3" width="94" height="94" rx="5" fill="#227AE6" stroke="black" stroke-width="6"/>
<path opacity="0.1" d="M39.4237 57.8277L30.2278 70.8461C29.2921 72.1709 30.2395 74 31.8614 74H84.1427C85.7638 74 86.7114 72.1724 85.7772 70.8475L67.1033 44.3628C66.2978 43.2204 64.5988 43.2356 63.8139 44.3922L50.4923 64.022C49.7136 65.1694 48.032 65.1954 47.2181 64.0727L42.6766 57.8078C41.872 56.6979 40.2146 56.7081 39.4237 57.8277Z" fill="black" stroke="black" stroke-width="6" stroke-linejoin="round"/>
<path d="M31.4237 49.8277L22.2278 62.8461C21.2921 64.1709 22.2395 66 23.8614 66H76.1427C77.7638 66 78.7114 64.1724 77.7772 62.8475L59.1033 36.3628C58.2978 35.2204 56.5988 35.2356 55.8139 36.3922L42.4923 56.022C41.7136 57.1694 40.032 57.1954 39.2181 56.0727L34.6766 49.8078C33.872 48.6979 32.2146 48.7081 31.4237 49.8277Z" fill="#7FB6F7" stroke="black" stroke-width="6" stroke-linejoin="round"/>
</svg>
