<svg width="124" height="32" viewBox="0 0 124 32" fill="none" xmlns="http://www.w3.org/2000/svg">
<path d="M39.8147 24.4917L41.349 20.9257C43.007 22.1639 45.2095 22.8077 47.3872 22.8077C48.9958 22.8077 50.0104 22.1886 50.0104 21.2476C49.9857 18.6226 40.3839 20.678 40.3096 14.0908C40.2849 10.7476 43.2545 8.17212 47.4615 8.17212C49.9609 8.17212 52.4604 8.79122 54.2421 10.2028L52.8068 13.8431C51.1735 12.803 49.1443 12.0601 47.214 12.0601C45.9024 12.0601 45.0363 12.6792 45.0363 13.4716C45.061 16.0471 54.7371 14.6356 54.8361 20.9257C54.8361 24.3431 51.9407 26.7452 47.7832 26.7452C44.7393 26.7452 41.9429 26.0271 39.8147 24.4917Z" fill="black"/>
<path d="M98.6877 19.6379C97.9206 20.9752 96.4853 21.8915 94.8272 21.8915C92.3773 21.8915 90.3975 19.9103 90.3975 17.4587C90.3975 15.007 92.3773 13.0259 94.8272 13.0259C96.4853 13.0259 97.9206 13.9422 98.6877 15.2794L102.919 12.9268C101.336 10.1037 98.2918 8.17212 94.8272 8.17212C89.7046 8.17212 85.5471 12.3325 85.5471 17.4587C85.5471 22.5849 89.7046 26.7452 94.8272 26.7452C98.3165 26.7452 101.336 24.8384 102.919 21.9905L98.6877 19.6379Z" fill="black"/>
<path d="M62.2602 0.470459H56.9644V26.3985H62.2602V0.470459Z" fill="black"/>
<path d="M104.998 0.470459V26.3985H110.294V18.6226L116.579 26.3985H123.36L115.367 17.1615L122.766 8.54357H116.282L110.294 15.7004V0.470459H104.998Z" fill="black"/>
<path d="M77.9989 19.6875C77.2317 20.9504 75.6479 21.8915 73.8662 21.8915C71.4162 21.8915 69.4365 19.9103 69.4365 17.4587C69.4365 15.007 71.4162 13.0259 73.8662 13.0259C75.6479 13.0259 77.2317 14.0165 77.9989 15.3042V19.6875ZM77.9989 8.54358V10.6485C77.1327 9.18745 74.9798 8.17212 72.7278 8.17212C68.0754 8.17212 64.4128 12.283 64.4128 17.4339C64.4128 22.5849 68.0754 26.7452 72.7278 26.7452C74.9798 26.7452 77.1327 25.7299 77.9989 24.2688V26.3738H83.2947V8.54358H77.9989Z" fill="black"/>
<path d="M7.07493 19.6627C7.07493 21.4705 5.61486 22.9315 3.80834 22.9315C2.00182 22.9315 0.541748 21.4705 0.541748 19.6627C0.541748 17.8549 2.00182 16.3938 3.80834 16.3938H7.07493V19.6627Z" fill="#E01E5A"/>
<path d="M8.70801 19.6627C8.70801 17.8549 10.1681 16.3938 11.9746 16.3938C13.7811 16.3938 15.2412 17.8549 15.2412 19.6627V27.8348C15.2412 29.6426 13.7811 31.1037 11.9746 31.1037C10.1681 31.1037 8.70801 29.6426 8.70801 27.8348V19.6627Z" fill="#E01E5A"/>
<path d="M11.9746 6.53774C10.1681 6.53774 8.70801 5.07665 8.70801 3.26887C8.70801 1.46109 10.1681 0 11.9746 0C13.7811 0 15.2412 1.46109 15.2412 3.26887V6.53774H11.9746Z" fill="#36C5F0"/>
<path d="M11.9744 8.19702C13.7809 8.19702 15.241 9.65811 15.241 11.4659C15.241 13.2737 13.7809 14.7348 11.9744 14.7348H3.78319C1.97667 14.7348 0.516602 13.2737 0.516602 11.4659C0.516602 9.65811 1.97667 8.19702 3.78319 8.19702H11.9744Z" fill="#36C5F0"/>
<path d="M25.0653 11.4659C25.0653 9.65811 26.5254 8.19702 28.3319 8.19702C30.1384 8.19702 31.5985 9.65811 31.5985 11.4659C31.5985 13.2737 30.1384 14.7348 28.3319 14.7348H25.0653V11.4659Z" fill="#2EB67D"/>
<path d="M23.4321 11.4658C23.4321 13.2736 21.972 14.7347 20.1655 14.7347C18.359 14.7347 16.8989 13.2736 16.8989 11.4658V3.26887C16.8989 1.46109 18.359 0 20.1655 0C21.972 0 23.4321 1.46109 23.4321 3.26887V11.4658Z" fill="#2EB67D"/>
<path d="M20.1655 24.5659C21.972 24.5659 23.4321 26.027 23.4321 27.8348C23.4321 29.6426 21.972 31.1037 20.1655 31.1037C18.359 31.1037 16.8989 29.6426 16.8989 27.8348V24.5659H20.1655Z" fill="#ECB22E"/>
<path d="M20.1655 22.9315C18.359 22.9315 16.8989 21.4705 16.8989 19.6627C16.8989 17.8549 18.359 16.3938 20.1655 16.3938H28.3567C30.1633 16.3938 31.6233 17.8549 31.6233 19.6627C31.6233 21.4705 30.1633 22.9315 28.3567 22.9315H20.1655Z" fill="#ECB22E"/>
</svg>
