<svg width="108" height="24" viewBox="0 0 108 24" fill="none" xmlns="http://www.w3.org/2000/svg">
<path d="M47.9224 1.70264V4.51676H40.8744V23.1933H37.9579V4.51305H31.9778V1.70264H47.9224Z" fill="#253858"/>
<path d="M49.3436 6.83641H52.0649V9.71374C53.0039 7.78437 54.6425 6.40891 57.802 6.60593V9.35314C54.2375 8.9814 52.0649 10.0743 52.0649 13.539V23.2044H49.3436V6.83641Z" fill="#253858"/>
<path d="M67.623 23.5204C61.5618 23.5204 58.9069 19.9888 58.9069 14.9702C58.9069 10.0296 61.6281 6.49805 66.5551 6.49805C71.5447 6.49805 73.5516 9.99991 73.5516 14.9702V16.2453H61.7275C62.1179 19.0259 63.9001 20.8252 67.7224 20.8252C69.4034 20.8236 71.071 20.5242 72.6494 19.9404V22.5427C71.3201 23.2601 69.2764 23.5204 67.623 23.5204ZM61.6944 13.8549H70.7346C70.5726 10.814 69.2101 9.07797 66.4262 9.07797C63.4767 9.0631 61.9853 10.9925 61.6944 13.8363V13.8549Z" fill="#253858"/>
<path d="M81.203 23.29C78.5443 23.29 76.8615 22.0149 76.8615 19.0037V0H79.649V18.6803C79.649 20.1673 80.6211 20.6766 81.8216 20.6766C82.092 20.6811 82.3625 20.6699 82.6317 20.6431V23.1599C82.1624 23.2614 81.6827 23.3051 81.203 23.29V23.29Z" fill="#253858"/>
<path d="M89.658 23.29C86.9994 23.29 85.3165 22.0149 85.3165 19.0037V0H88.1041V18.6803C88.1041 20.1673 89.0762 20.6766 90.2767 20.6766C90.5471 20.6811 90.8176 20.6699 91.0868 20.6431V23.1599C90.6175 23.2614 90.1377 23.3051 89.658 23.29Z" fill="#253858"/>
<path d="M92.6407 14.9814C92.6407 10.0743 95.4909 6.50928 100.352 6.50928C105.212 6.50928 108 10.0743 108 14.9814C108 19.8885 105.179 23.5316 100.352 23.5316C95.524 23.5316 92.6407 19.8885 92.6407 14.9814ZM95.362 14.9814C95.362 18.0892 96.8865 20.9033 100.352 20.9033C103.817 20.9033 105.279 18.0892 105.279 14.9814C105.279 11.8736 103.806 9.12638 100.355 9.12638C96.9049 9.12638 95.3731 11.8736 95.3731 14.9814H95.362Z" fill="#253858"/>
<path d="M20.3119 0.561279H2.9017C2.13212 0.561279 1.39406 0.869908 0.849889 1.41927C0.305714 1.96863 0 2.71373 0 3.49065L0 21.0669C0 21.8438 0.305714 22.5889 0.849889 23.1382C1.39406 23.6876 2.13212 23.9962 2.9017 23.9962H20.3119C21.0789 23.9923 21.8132 23.6819 22.3542 23.133C22.8952 22.5841 23.1989 21.8412 23.1989 21.0669V3.49065C23.1989 2.7163 22.8952 1.97345 22.3542 1.42451C21.8132 0.875573 21.0789 0.56521 20.3119 0.561279V0.561279ZM10.097 18.3122C10.0932 18.6823 9.9448 19.0359 9.68418 19.2962C9.42356 19.5566 9.07173 19.7026 8.7051 19.7025H4.41883C4.05093 19.7045 3.69722 19.5594 3.43501 19.2989C3.1728 19.0383 3.02342 18.6836 3.01954 18.3122V18.3122V5.01481C3.01953 4.82965 3.05578 4.64631 3.12619 4.47534C3.1966 4.30437 3.29979 4.14913 3.42982 4.01854C3.55986 3.88796 3.71417 3.78461 3.8839 3.71443C4.05363 3.64425 4.23542 3.60863 4.41883 3.60961H8.7051C9.07427 3.60961 9.42831 3.75765 9.68935 4.02118C9.95039 4.28471 10.097 4.64213 10.097 5.01481V18.3122ZM20.1978 12.4535C20.1978 12.8262 20.0511 13.1836 19.7901 13.4471C19.529 13.7106 19.175 13.8587 18.8058 13.8587H14.5085C14.1393 13.8587 13.7853 13.7106 13.5243 13.4471C13.2632 13.1836 13.1166 12.8262 13.1166 12.4535V5.01853C13.1161 4.83368 13.1517 4.65055 13.2215 4.47964C13.2912 4.30872 13.3937 4.15337 13.523 4.02249C13.6523 3.89162 13.8059 3.78778 13.975 3.71693C14.1441 3.64607 14.3254 3.60961 14.5085 3.60961H18.8058C19.175 3.60961 19.529 3.75765 19.7901 4.02118C20.0511 4.28471 20.1978 4.64213 20.1978 5.01481V5.01481V12.4535Z" fill="url(#paint0_linear)"/>
<defs>
<linearGradient id="paint0_linear" x1="11.6068" y1="23.9999" x2="11.6068" y2="0.561279" gradientUnits="userSpaceOnUse">
<stop offset="0.18" stop-color="#0052CC"/>
<stop offset="1" stop-color="#2684FF"/>
</linearGradient>
</defs>
</svg>
