<svg width="122" height="34" viewBox="0 0 122 34" fill="none" xmlns="http://www.w3.org/2000/svg">
<path d="M47.313 13.6074C45.7462 13.6074 44.9694 14.8466 44.6213 15.6413C44.4204 16.0858 44.3668 16.436 44.2061 16.436C43.9784 16.436 44.1391 16.1262 43.9517 15.4527C43.7106 14.5637 42.9741 13.6074 41.4072 13.6074C39.76 13.6074 39.0636 15.0082 38.7288 15.776C38.5012 16.3013 38.5012 16.4495 38.3271 16.4495C38.0726 16.4495 38.2869 16.0319 38.394 15.547C38.6217 14.5772 38.4476 13.8364 38.4476 13.8364H35.8362V23.696H39.3984C39.3984 23.696 39.3984 19.5744 39.3984 18.7931C39.3984 17.8233 39.8002 16.5976 40.4966 16.5976C41.3001 16.5976 41.4474 17.2172 41.4474 18.3487C41.4474 19.3858 41.4474 23.696 41.4474 23.696H45.023C45.023 23.696 45.023 19.5474 45.023 18.7797C45.023 17.9176 45.3712 16.5842 46.1211 16.5842C46.9247 16.5842 47.072 17.4462 47.072 18.3352C47.072 19.2242 47.072 23.6825 47.072 23.6825H50.5806C50.5806 23.6825 50.5806 19.7764 50.5806 17.8772C50.5806 15.3315 49.67 13.6074 47.313 13.6074Z" fill="black"/>
<path d="M107.751 13.6074C106.184 13.6074 105.407 14.8466 105.059 15.6413C104.858 16.0858 104.805 16.436 104.644 16.436C104.416 16.436 104.563 16.0454 104.389 15.4527C104.135 14.5637 103.479 13.6074 101.845 13.6074C100.198 13.6074 99.488 15.0082 99.1666 15.776C98.9389 16.3013 98.9389 16.4495 98.7648 16.4495C98.5104 16.4495 98.7246 16.0319 98.8318 15.547C99.0594 14.5772 98.8853 13.8364 98.8853 13.8364H96.2739V23.696H99.8362C99.8362 23.696 99.8362 19.5744 99.8362 18.7931C99.8362 17.8233 100.238 16.5976 100.934 16.5976C101.738 16.5976 101.885 17.2172 101.885 18.3487C101.885 19.3858 101.885 23.696 101.885 23.696H105.461C105.461 23.696 105.461 19.5474 105.461 18.7797C105.461 17.9176 105.809 16.5842 106.559 16.5842C107.362 16.5842 107.51 17.4462 107.51 18.3352C107.51 19.2242 107.51 23.6825 107.51 23.6825H111.018C111.018 23.6825 111.018 19.7764 111.018 17.8772C111.018 15.3315 110.108 13.6074 107.751 13.6074Z" fill="black"/>
<path d="M55.7907 21.3927C54.9337 21.5948 54.4917 21.3254 54.4917 20.7597C54.4917 19.9784 55.2952 19.6687 56.4335 19.6687C56.9424 19.6687 57.4111 19.7091 57.4111 19.7091C57.4111 20.0593 56.7014 21.1907 55.7907 21.3927ZM56.6612 13.6074C53.9293 13.6074 51.974 14.6176 51.974 14.6176V17.5809C51.974 17.5809 54.1301 16.3282 55.8845 16.3282C57.2772 16.3282 57.4513 17.0825 57.3978 17.7156C57.3978 17.7156 56.996 17.6078 55.7639 17.6078C52.8579 17.6078 51.3982 18.9278 51.3982 21.056C51.3982 23.0764 53.0454 23.9115 54.4382 23.9115C56.4603 23.9115 57.3576 22.5376 57.6254 21.8911C57.8129 21.4466 57.8531 21.1368 58.0138 21.1368C58.2013 21.1368 58.1477 21.3523 58.1343 21.7968C58.1209 22.578 58.1611 23.1707 58.2816 23.6691H60.96V18.8201C60.96 15.8164 59.8886 13.6074 56.6612 13.6074Z" fill="black"/>
<path d="M66.8256 23.7095H70.3744V10.8462H66.8256V23.7095Z" fill="black"/>
<path d="M74.298 18.7797C74.298 17.8907 75.1149 17.0825 76.6282 17.0825C78.262 17.0825 79.5878 17.8772 79.8824 18.0523V14.6176C79.8824 14.6176 78.8378 13.6074 76.28 13.6074C73.5882 13.6074 71.3384 15.1968 71.3384 18.618C71.3384 22.0393 73.3739 23.9384 76.28 23.9384C78.5432 23.9384 79.8958 22.6858 79.8958 22.6858V19.4262C79.4672 19.6686 78.2754 20.5037 76.655 20.5037C74.914 20.4903 74.298 19.6956 74.298 18.7797Z" fill="black"/>
<path d="M87.0867 13.6074C85.0243 13.6074 84.2476 15.5739 84.0869 15.9107C83.9262 16.2474 83.8459 16.4495 83.7253 16.4495C83.4977 16.436 83.6584 16.0319 83.7387 15.7625C83.8994 15.2641 84.261 13.9441 84.261 12.3144C84.261 11.2099 84.1137 10.8462 84.1137 10.8462H81.0336V23.696H84.5958C84.5958 23.696 84.5958 19.5878 84.5958 18.7931C84.5958 17.9984 84.9172 16.5976 85.8145 16.5976C86.551 16.5976 86.7921 17.1499 86.7921 18.2678C86.7921 19.3858 86.7921 23.7095 86.7921 23.7095H90.3543C90.3543 23.7095 90.3543 20.7058 90.3543 18.4833C90.3409 15.9511 89.9258 13.6074 87.0867 13.6074Z" fill="black"/>
<path d="M91.5068 13.8499V23.7094H95.0691V13.8499C95.0691 13.8499 94.4664 14.2001 93.2879 14.2001C92.1095 14.2001 91.5068 13.8499 91.5068 13.8499Z" fill="black"/>
<path d="M93.2742 10.752C92.0689 10.752 91.0913 11.3985 91.0913 12.1797C91.0913 12.9744 92.0689 13.6075 93.2742 13.6075C94.4795 13.6075 95.4571 12.9609 95.4571 12.1797C95.4571 11.3985 94.4795 10.752 93.2742 10.752Z" fill="black"/>
<path d="M62.1118 13.8499V23.7094H65.674V13.8499C65.674 13.8499 65.0714 14.2001 63.8929 14.2001C62.7144 14.2001 62.1118 13.8499 62.1118 13.8499Z" fill="black"/>
<path d="M63.879 10.752C62.6738 10.752 61.6962 11.3985 61.6962 12.1797C61.6962 12.9744 62.6738 13.6075 63.879 13.6075C65.0843 13.6075 66.0619 12.9609 66.0619 12.1797C66.0619 11.3985 65.0843 10.752 63.879 10.752Z" fill="black"/>
<path d="M117.112 21.5813C116.295 21.5813 115.692 20.5442 115.692 19.0895C115.692 17.6752 116.308 16.5976 117.085 16.5976C118.076 16.5976 118.505 17.5135 118.505 19.0895C118.491 20.7327 118.103 21.5813 117.112 21.5813ZM118.09 13.6074C116.255 13.6074 115.425 14.9813 115.05 15.776C114.809 16.3013 114.822 16.4495 114.648 16.4495C114.393 16.4495 114.608 16.0319 114.715 15.547C114.942 14.5772 114.768 13.8364 114.768 13.8364H112.157V26.4303H115.719C115.719 26.4303 115.719 24.3695 115.719 22.4433C116.134 23.1572 116.924 23.925 118.13 23.925C120.701 23.925 122 21.7295 122 18.7797C122 15.4123 120.447 13.6074 118.09 13.6074Z" fill="black"/>
<path d="M23.2486 16.5975C23.4896 16.5705 23.7173 16.5705 23.9315 16.5975C24.0521 16.3146 24.0788 15.8297 23.9583 15.3044C23.7976 14.5232 23.57 14.0383 23.1146 14.1191C22.6593 14.1865 22.6459 14.7656 22.8066 15.5469C22.9004 15.9779 23.0745 16.355 23.2486 16.5975Z" fill="black"/>
<path d="M19.338 17.2173C19.6594 17.3655 19.8602 17.4597 19.9406 17.3789C19.9942 17.325 19.9808 17.2308 19.9004 17.0961C19.7397 16.8267 19.4049 16.5573 19.0567 16.4091C18.3336 16.0993 17.4765 16.2071 16.8203 16.6785C16.606 16.8401 16.3918 17.0691 16.4185 17.2038C16.4319 17.2442 16.4587 17.2846 16.5391 17.2846C16.7132 17.3116 17.3426 16.9883 18.0791 16.9344C18.588 16.9075 19.0032 17.0691 19.338 17.2173Z" fill="black"/>
<path d="M18.6811 17.5943C18.2526 17.6616 18.0249 17.7963 17.8642 17.931C17.7303 18.0388 17.6499 18.1735 17.6633 18.2543C17.6633 18.2947 17.6767 18.3217 17.6901 18.3351C17.7035 18.3486 17.7303 18.3621 17.7571 18.3621C17.8508 18.3621 18.0651 18.2812 18.0651 18.2812C18.6543 18.0657 19.0427 18.0927 19.431 18.1331C19.6453 18.16 19.7524 18.1735 19.7926 18.0927C19.806 18.0657 19.8194 18.0253 19.7792 17.958C19.6855 17.7963 19.2569 17.5135 18.6811 17.5943Z" fill="black"/>
<path d="M21.9218 18.9682C22.2164 19.1163 22.5245 19.049 22.6316 18.8469C22.7387 18.6314 22.5914 18.3486 22.2968 18.2004C22.0022 18.0522 21.6942 18.1196 21.587 18.3216C21.4933 18.5371 21.6406 18.8335 21.9218 18.9682Z" fill="black"/>
<path d="M23.7835 17.3384C23.5425 17.3384 23.355 17.5943 23.355 17.9176C23.355 18.2408 23.5291 18.5102 23.7701 18.5102C24.0112 18.5102 24.1987 18.2543 24.1987 17.931C24.1987 17.6078 24.0246 17.3518 23.7835 17.3384Z" fill="black"/>
<path d="M8.0344 23.1707C7.98083 23.1034 7.8737 23.1168 7.79334 23.1438C7.72638 23.1573 7.65943 23.1707 7.57907 23.1707C7.40498 23.1707 7.25767 23.0899 7.17732 22.9687C7.07018 22.8071 7.07018 22.5511 7.19071 22.2817C7.2041 22.2413 7.23088 22.2009 7.24428 22.1605C7.43176 21.7295 7.75317 21.0291 7.39159 20.3422C7.12375 19.8303 6.69521 19.5205 6.17293 19.4532C5.67743 19.3858 5.15514 19.5744 4.83374 19.9381C4.31145 20.5173 4.2311 21.2985 4.33824 21.5679C4.37841 21.6756 4.43198 21.7026 4.47216 21.7026C4.5659 21.716 4.68643 21.6487 4.76678 21.4332C4.76678 21.4197 4.78017 21.3928 4.79356 21.3658C4.83374 21.2446 4.9007 21.0291 5.00783 20.854C5.14175 20.6385 5.35602 20.5038 5.59707 20.4499C5.85152 20.396 6.10597 20.4499 6.32024 20.5846C6.68182 20.8271 6.82913 21.2715 6.66843 21.7026C6.58807 21.9181 6.45416 22.3491 6.48094 22.6993C6.53451 23.3997 6.96305 23.6826 7.35141 23.7095C7.72638 23.723 7.99422 23.5075 8.06118 23.3593C8.08797 23.2515 8.04779 23.1977 8.0344 23.1707Z" fill="black"/>
<path d="M11.5971 10.267C12.8292 8.83924 14.3291 7.60006 15.6817 6.91312C15.7218 6.88618 15.7754 6.94006 15.7486 6.98046C15.6415 7.1825 15.4406 7.60006 15.3737 7.90985C15.3603 7.96373 15.4138 7.99067 15.454 7.96373C16.2977 7.38455 17.7574 6.76495 19.043 6.69761C19.0966 6.69761 19.1234 6.76495 19.0832 6.80536C18.8823 6.95352 18.6814 7.16903 18.5207 7.37108C18.494 7.41148 18.5207 7.45189 18.5609 7.46536C19.4582 7.46536 20.7304 7.78863 21.5607 8.26006C21.6143 8.28699 21.5741 8.39475 21.5205 8.38128C20.2751 8.09842 18.2261 7.86944 16.0968 8.39475C14.1952 8.86618 12.7488 9.58006 11.6909 10.3478C11.6239 10.3882 11.557 10.3209 11.5971 10.267ZM22.7526 24.6523C22.7928 24.6388 22.8195 24.5984 22.8061 24.558C22.8061 24.5041 22.7526 24.4637 22.699 24.4772C22.699 24.4772 20.0876 24.8678 17.6235 23.9519C17.8913 23.0764 18.6011 23.3862 19.6858 23.4805C21.6277 23.6017 23.382 23.3054 24.6676 22.9417C25.7791 22.6184 27.2523 21.9854 28.3906 21.0829C28.7789 21.9315 28.9128 22.8743 28.9128 22.8743C28.9128 22.8743 29.2075 22.8205 29.4619 22.9686C29.703 23.1168 29.8637 23.4131 29.7565 24.1943C29.5155 25.6625 28.8995 26.8478 27.8549 27.9388C27.2255 28.6258 26.4621 29.2184 25.5783 29.6494C25.1096 29.8919 24.6141 30.1074 24.0918 30.2825C20.1813 31.5621 16.1772 30.1613 14.8782 27.1172C14.771 26.8882 14.6907 26.6458 14.6237 26.4033C14.0746 24.4099 14.5434 21.9988 16.0031 20.4903C16.0968 20.396 16.1906 20.2747 16.1906 20.1401C16.1906 20.0188 16.1102 19.8976 16.0566 19.8033C15.5478 19.0625 13.78 17.7829 14.1282 15.3315C14.3827 13.567 15.9227 12.3278 17.3557 12.3952C17.4762 12.3952 17.5967 12.4086 17.7172 12.4221C18.3333 12.4625 18.8823 12.5433 19.3912 12.5568C20.2483 12.5972 21.0116 12.4625 21.9223 11.7082C22.2303 11.4523 22.4713 11.2233 22.8865 11.156C22.9267 11.1425 23.0338 11.1156 23.2615 11.1156C23.4891 11.129 23.69 11.1829 23.8909 11.3176C24.6141 11.8025 24.7212 12.9878 24.7614 13.8499C24.7881 14.3482 24.8417 15.5335 24.8685 15.8837C24.9087 16.665 25.1229 16.7727 25.5381 16.9209C25.7658 17.0017 25.9934 17.0556 26.3014 17.1499C27.2656 17.4192 27.8415 17.7021 28.2031 18.0523C28.4173 18.2678 28.5245 18.5103 28.5513 18.7392C28.6718 19.5743 27.9085 20.6115 25.8997 21.5409C23.7034 22.5645 21.0384 22.8205 19.2037 22.6184C19.0564 22.605 18.5609 22.5511 18.5609 22.5511C17.0878 22.349 16.2441 24.2617 17.128 25.5817C17.7038 26.4303 19.2439 26.9825 20.7974 26.9825C24.3596 26.9825 27.0915 25.4605 28.1093 24.1405C28.1361 24.1001 28.1361 24.1001 28.1897 24.0192C28.2433 23.9384 28.2031 23.898 28.1361 23.9384C27.3058 24.5041 23.6097 26.7805 19.6591 26.0935C19.6591 26.0935 19.1769 26.0127 18.735 25.8376C18.3868 25.7029 17.6637 25.3662 17.5699 24.6119C20.7438 25.5952 22.7526 24.6523 22.7526 24.6523ZM5.236 17.0286C4.12448 17.2441 3.14687 17.8772 2.55763 18.7527C2.19605 18.4564 1.53985 17.8772 1.41932 17.6482C0.468496 15.8299 2.46389 12.2874 3.85664 10.2805C7.29835 5.3372 12.6953 1.59271 15.1996 2.27965C15.6013 2.40087 16.9539 3.96332 16.9539 3.96332C16.9539 3.96332 14.463 5.35067 12.1462 7.30373C9.01251 9.71475 6.65554 13.2303 5.236 17.0286ZM7.09748 25.3931C6.92338 25.4201 6.76268 25.4335 6.58858 25.4335C4.92799 25.3796 3.12009 23.8711 2.94599 22.0796C2.74512 20.0996 3.74951 18.5776 5.53063 18.2139C5.7449 18.1735 5.99934 18.1466 6.28057 18.1601C7.28496 18.2139 8.74468 18.9817 9.07947 21.1772C9.3741 23.1168 8.90538 25.0833 7.09748 25.3931ZM29.703 21.8911C29.6896 21.8372 29.5958 21.5005 29.4619 21.0829C29.328 20.6654 29.2075 20.3825 29.2075 20.3825C29.7164 19.6147 29.7297 18.9143 29.6628 18.5237C29.5958 18.0388 29.395 17.6213 28.9798 17.2037C28.578 16.7727 27.7478 16.3417 26.5827 16.005C26.4487 15.9645 26.0068 15.8433 25.9666 15.8299C25.9666 15.8029 25.9398 14.3886 25.9131 13.769C25.8997 13.3245 25.8595 12.6376 25.6452 11.9641C25.3908 11.0482 24.9488 10.2401 24.3998 9.72822C25.9131 8.13883 26.8639 6.40128 26.8639 4.90618C26.8639 2.02373 23.3418 1.14822 19.0162 2.95312C19.0162 2.95312 18.1056 3.34373 18.0922 3.34373C18.0922 3.34373 16.4316 1.70046 16.4048 1.68699C11.4766 -2.63668 -3.97761 14.6311 0.963996 18.8201L2.04874 19.736C1.76751 20.4633 1.66037 21.2984 1.75412 22.2009C1.87464 23.3592 2.46389 24.4637 3.41471 25.3123C4.32536 26.1205 5.51723 26.6323 6.68233 26.6323C8.61076 31.0907 12.9899 33.825 18.1458 33.9731C23.6632 34.1347 28.3102 31.5352 30.252 26.8478C30.3726 26.5245 30.9216 25.0429 30.9216 23.7364C30.9082 22.4299 30.1717 21.8911 29.703 21.8911Z" fill="black"/>
</svg>
