<svg width="106" height="31" viewBox="0 0 106 31" fill="none" xmlns="http://www.w3.org/2000/svg">
<path d="M11.9117 1.01628C12.0772 1.01628 12.2426 1.06355 12.4081 1.18172C11.2027 1.74895 9.87918 3.19065 9.33559 6.07404C8.53202 6.33402 7.75209 6.57037 7.01942 6.78308C7.65755 4.58508 9.17015 1.01628 11.9117 1.01628ZM13.0226 2.07983C13.2589 2.67069 13.4007 3.49789 13.4007 4.63234C13.4007 4.67961 13.4007 4.75052 13.4007 4.79779C12.479 5.0814 11.4627 5.38864 10.47 5.69589C11.0373 3.52153 12.1008 2.48161 13.0226 2.07983ZM15.8351 4.04148C15.4096 4.18329 14.9369 4.3251 14.417 4.49054C14.417 4.396 14.417 4.30146 14.417 4.18329C14.417 3.23791 14.2752 2.48161 14.0861 1.89075C14.9133 1.98529 15.4805 2.9543 15.8351 4.04148ZM22.6418 5.71953C22.6181 5.57772 22.5 5.48318 22.3818 5.48318C22.2636 5.48318 20.0183 5.31774 20.0183 5.31774C20.0183 5.31774 18.4585 3.75787 18.2694 3.59243C18.104 3.42699 17.7494 3.47426 17.6313 3.52153C17.6076 3.52153 17.2768 3.61607 16.7568 3.78151C16.2368 2.2689 15.3151 0.874473 13.6843 0.874473C13.6371 0.874473 13.5898 0.874473 13.5425 0.874473C13.0698 0.259978 12.5026 0 12.0063 0C8.20114 0 6.40493 4.75052 5.8377 7.16123C4.37237 7.61028 3.30882 7.94116 3.19064 7.98843C2.36344 8.24841 2.33981 8.27205 2.24527 9.05198C2.17436 9.64284 0 26.2815 0 26.2815L16.7804 29.4248L25.8797 27.4632C25.856 27.4396 22.6654 5.86133 22.6418 5.71953Z" fill="#95BF47"/>
<path d="M22.3819 5.48329C22.2638 5.48329 20.0185 5.31785 20.0185 5.31785C20.0185 5.31785 18.4586 3.75798 18.2696 3.59254C18.1987 3.52163 18.1278 3.498 18.0332 3.47437L16.757 29.4249L25.8562 27.4633C25.8562 27.4633 22.6656 5.88508 22.6419 5.74327C22.6183 5.57783 22.5001 5.48329 22.3819 5.48329Z" fill="#5E8E3E"/>
<path d="M13.6845 10.4937L12.5737 13.8262C12.5737 13.8262 11.581 13.3062 10.3993 13.3062C8.62673 13.3062 8.55583 14.417 8.55583 14.7007C8.55583 16.2133 12.5264 16.8041 12.5264 20.3729C12.5264 23.1854 10.7538 24.9816 8.34312 24.9816C5.45972 24.9816 3.99438 23.1854 3.99438 23.1854L4.77432 20.6329C4.77432 20.6329 6.28692 21.9328 7.56318 21.9328C8.39038 21.9328 8.7449 21.271 8.7449 20.7983C8.7449 18.813 5.48335 18.7185 5.48335 15.457C5.48335 12.7154 7.44501 10.0447 11.4392 10.0447C12.9282 10.0683 13.6845 10.4937 13.6845 10.4937Z" fill="white"/>
<path d="M36.4444 16.7568C35.5463 16.2605 35.0736 15.8587 35.0736 15.2915C35.0736 14.5588 35.7117 14.1097 36.728 14.1097C37.9097 14.1097 38.9497 14.6061 38.9497 14.6061L39.7769 12.0772C39.7769 12.0772 39.0206 11.4863 36.7753 11.4863C33.6555 11.4863 31.4812 13.2825 31.4812 15.7878C31.4812 17.2059 32.4975 18.293 33.8446 19.073C34.9318 19.6875 35.31 20.1365 35.31 20.7747C35.31 21.4601 34.7664 22.0036 33.7501 22.0036C32.2375 22.0036 30.8194 21.2237 30.8194 21.2237L29.9449 23.7526C29.9449 23.7526 31.2685 24.6271 33.4665 24.6271C36.6808 24.6271 38.9733 23.0436 38.9733 20.2074C39.0206 18.6476 37.8625 17.5604 36.4444 16.7568Z" fill="black"/>
<path d="M49.254 11.4154C47.6705 11.4154 46.4415 12.1717 45.4725 13.3062L45.4252 13.2825L46.796 6.09766H43.2272L39.7529 24.3671H43.3217L44.5034 18.1276C44.9761 15.7641 46.1815 14.3224 47.3159 14.3224C48.1195 14.3224 48.4268 14.866 48.4268 15.646C48.4268 16.1423 48.3795 16.7331 48.2613 17.2295L46.9142 24.3907H50.483L51.8774 17.0168C52.0428 16.2368 52.1374 15.3151 52.1374 14.6769C52.1846 12.6444 51.1211 11.4154 49.254 11.4154Z" fill="black"/>
<path d="M58.4951 21.8856C57.2661 21.8856 56.7698 20.8457 56.7698 19.5458C56.7698 17.4896 57.8333 14.1571 59.7713 14.1571C61.0476 14.1571 61.4494 15.2443 61.4494 16.3079C61.4494 18.5059 60.3858 21.8856 58.4951 21.8856ZM60.2677 11.4155C55.9662 11.4155 53.1064 15.2916 53.1064 19.6167C53.1064 22.3819 54.8081 24.6272 58.0224 24.6272C62.253 24.6272 65.0891 20.8457 65.0891 16.426C65.1127 13.8499 63.6001 11.4155 60.2677 11.4155Z" fill="black"/>
<path d="M70.8326 21.9328C69.9108 21.9328 69.3672 21.4129 69.3672 21.4129L69.9581 18.0804C70.3835 15.8588 71.5416 14.3698 72.7706 14.3698C73.8578 14.3698 74.1887 15.3861 74.1887 16.3315C74.2123 18.6477 72.8179 21.9328 70.8326 21.9328ZM74.2596 11.4155C71.8489 11.4155 70.4781 13.5426 70.4781 13.5426H70.4308L70.6435 11.6282H67.4765C67.311 12.9281 67.0274 14.8898 66.7438 16.3788L64.2622 29.4722H67.831L68.8237 24.1781H68.8946C68.8946 24.1781 69.6272 24.6508 70.998 24.6508C75.2049 24.6508 77.9465 20.3493 77.9465 16.0006C77.9229 13.5663 76.8594 11.4155 74.2596 11.4155Z" fill="black"/>
<path d="M83.0271 6.28662C81.8927 6.28662 80.9709 7.18473 80.9709 8.36645C80.9709 9.43 81.6327 10.1627 82.649 10.1627H82.6963C83.8071 10.1627 84.7761 9.40637 84.7997 8.08284C84.8234 7.04292 84.1143 6.28662 83.0271 6.28662Z" fill="black"/>
<path d="M78.041 24.367H81.6098L84.0442 11.699H80.4517L78.041 24.367Z" fill="black"/>
<path d="M93.1429 11.6754H90.6612L90.7794 11.0845C90.9921 9.85554 91.7012 8.76836 92.9065 8.76836C93.5446 8.76836 94.041 8.95743 94.041 8.95743L94.75 6.16857C94.75 6.16857 94.1355 5.86133 92.812 5.86133C91.5357 5.86133 90.2831 6.21584 89.3141 7.04305C88.0851 8.08296 87.5179 9.57193 87.2343 11.0845L87.1397 11.6754H85.4853L84.9653 14.3697H86.6198L84.729 24.3671H88.2978L90.1886 14.3697H92.6465L93.1429 11.6754Z" fill="black"/>
<path d="M101.746 11.699C101.746 11.699 99.5008 17.324 98.5082 20.3964H98.4609C98.39 19.4038 97.5864 11.699 97.5864 11.699H93.8286L95.9793 23.3271C96.0265 23.5871 96.0029 23.7525 95.9084 23.918C95.483 24.7215 94.7976 25.5015 93.9704 26.0687C93.3086 26.565 92.5523 26.8723 91.9614 27.085L92.9541 30.1102C93.6867 29.9447 95.1757 29.3539 96.452 28.1722C98.0827 26.6359 99.5953 24.2961 101.132 21.0818L105.504 11.699H101.746Z" fill="black"/>
</svg>
