<svg width="102" height="39" viewBox="0 0 102 39" fill="none" xmlns="http://www.w3.org/2000/svg">
<path d="M10.726 16.9026H3.57534V9.51025H0V28.0742H3.57534V20.3496H10.726V28.0742H14.2603V9.51025H10.726V16.9026Z" fill="#485661"/>
<path d="M38.2606 25.0427C36.1647 25.0427 34.3975 23.1738 34.3975 20.8897C34.3975 18.564 36.1236 16.7367 38.2606 16.7367C40.3154 16.7367 42.0414 18.6471 42.0414 20.8482C42.0414 23.1323 40.3154 25.0427 38.2606 25.0427ZM38.4249 13.6219C36.8222 13.6219 35.5893 14.1618 34.603 15.3662V9.17822H31.4797V18.564C31.4797 21.7203 31.5208 22.0941 31.9318 23.4646C32.8359 26.2471 35.3838 28.1159 38.2606 28.1159C42.1647 28.1159 45.2058 24.9596 45.2058 20.8482C45.2469 16.9028 42.2058 13.6219 38.4249 13.6219Z" fill="#485661"/>
<path d="M67.192 25.1256C65.055 25.1256 63.329 23.2983 63.329 20.9726C63.329 18.6884 65.0961 16.8196 67.192 16.8196C69.2468 16.8196 70.9728 18.73 70.9728 21.0141C70.9728 23.2152 69.2057 25.1256 67.192 25.1256ZM67.2331 13.7048C64.3564 13.7048 61.8084 15.6152 60.9043 18.3562C60.4523 19.7267 60.4523 20.1005 60.4523 23.2567V32.6425H63.5756V26.4546C64.5619 27.6589 65.7947 28.1988 67.3975 28.1988C71.1783 28.1988 74.2194 24.9595 74.2194 20.9311C74.1783 16.9026 71.1372 13.7048 67.2331 13.7048Z" fill="#485661"/>
<path d="M53.3423 16.8613L51.7396 16.3214C50.8766 16.0307 50.3423 15.3662 50.3423 14.5356C50.3423 13.4558 51.2465 12.6668 52.6848 12.6668C53.7533 12.6668 54.4108 12.999 55.3971 13.9542L55.767 14.328L58.1095 11.8777C56.3012 9.67661 55.1917 9.13672 52.6026 9.13672C49.2328 9.13672 46.8081 11.4624 46.8081 14.7017C46.8081 17.1936 48.2054 19.0624 50.8355 19.9761L52.1917 20.4329C54.1643 21.1389 54.6985 21.6373 54.6985 22.7586C54.6985 24.0045 53.6711 24.8766 52.1917 24.8766C50.7944 24.8766 49.767 24.2537 48.7807 22.8416L46.4382 25.4165C48.2875 27.8252 49.5204 28.4482 52.2739 28.4482C55.7259 28.4482 58.2739 26.0395 58.2739 22.717C58.2739 19.7684 56.7944 18.0242 53.3423 16.8613Z" fill="#485661"/>
<path d="M100.808 25.1257C98.7123 25.1257 98.0548 24.5858 98.0548 22.717V17.4011H101.178V14.3279H98.0548V10.3826L94.9315 12.0438V22.717C94.9315 26.6623 96.411 28.3651 99.863 28.3651C100.274 28.3651 100.479 28.3235 101.137 28.3235L101.959 25.0011C101.425 25.0842 101.178 25.1257 100.808 25.1257Z" fill="#485661"/>
<path d="M25.7261 22.2185C25.7261 23.8382 24.4522 25.1256 22.8494 25.1256H22.6851C21.0823 25.1256 19.8083 23.8382 19.8083 22.2185V14.0786H16.5618V22.3016C16.5618 25.4994 19.1508 28.1158 22.3152 28.1158H23.096C26.2604 28.1158 28.8494 25.4994 28.8494 22.3016V14.0786H25.7261V22.2185Z" fill="#485661"/>
<path d="M84.6164 26.1639C81.8219 26.1639 79.6027 23.8798 79.6027 21.0973C79.6027 18.2732 81.863 16.0306 84.6164 16.0306C87.4109 16.0306 89.6301 18.3148 89.6301 21.0973C89.6712 23.8798 87.4109 26.1639 84.6164 26.1639ZM85.5205 12.459V8.4306C86.9178 8.05683 87.9041 6.7694 87.9041 5.23279C87.9041 3.40546 86.4246 1.91038 84.6164 1.91038C82.8082 1.91038 81.3287 3.40546 81.3287 5.23279C81.3287 6.64481 82.1918 7.84918 83.4246 8.30601V12.459C82.315 12.5836 81.2465 12.9574 80.3013 13.4973L69.1644 4.98361C69.3287 4.56831 69.4109 4.11148 69.4109 3.61311C69.4109 1.61967 67.8082 0 65.8356 0C63.863 0 62.2603 1.61967 62.2603 3.61311C62.2603 5.60656 63.863 7.22623 65.8356 7.22623C66.5753 7.22623 67.274 6.97705 67.8493 6.60328L78.5753 14.7432C76.8904 16.3213 75.863 18.5639 75.863 21.0557C75.863 24.1705 77.5068 26.9115 79.9315 28.4481L77.2602 32.7257C77.1781 32.7257 77.0548 32.7257 76.9726 32.7257C75.5342 32.7257 74.3424 33.9301 74.3424 35.3836C74.3424 36.8372 75.5342 38.0415 76.9726 38.0415C78.4109 38.0415 79.6027 36.8372 79.6027 35.3836C79.6027 34.8022 79.3972 34.2208 79.0685 33.8055L81.8219 29.3617C82.6438 29.6525 83.5479 29.777 84.4931 29.777C89.2602 29.777 93.0822 25.8732 93.0822 21.0973C93.1233 16.612 89.7945 12.9574 85.5205 12.459Z" fill="#EE6E23"/>
<path d="M64.3973 2.57485C64.0685 3.15627 63.5754 3.53004 63.3288 3.40545C63.0822 3.28086 63.1644 2.65791 63.4932 2.07649C63.8219 1.49507 64.3151 1.1213 64.5617 1.24589C64.8083 1.41201 64.7261 1.99343 64.3973 2.57485Z" fill="#FFDCA5"/>
<path d="M84.6987 2.74098C85.3973 2.82404 85.9316 3.07322 85.8083 3.36393C85.7261 3.65464 85.0685 3.82076 84.3699 3.7377C83.6713 3.65464 83.137 3.40546 83.2603 3.11475C83.3425 2.86557 84 2.69945 84.6987 2.74098Z" fill="#FFDCA5"/>
<path d="M75.6988 33.7223C76.233 33.224 76.7673 33.0163 76.8906 33.2655C77.055 33.5147 76.7262 34.0961 76.233 34.5945C75.6988 35.0928 75.1646 35.3005 75.0413 35.0513C74.8769 34.8436 75.1646 34.2207 75.6988 33.7223Z" fill="#FFDCA5"/>
</svg>
