<svg width="138" height="27" viewBox="0 0 138 27" fill="none" xmlns="http://www.w3.org/2000/svg">
<path d="M7.79883 20.6208V12.0883L0.457031 0.347412H5.20117L9.91797 8.36825L14.5391 0.347412H19.2012L11.832 12.1159V20.6208H7.79883Z" fill="black"/>
<path d="M18.2168 13.0701C18.2168 11.7794 18.5312 10.5302 19.1602 9.32245C19.7891 8.11471 20.6777 7.19278 21.8262 6.55664C22.9837 5.92051 24.2734 5.60244 25.6953 5.60244C27.8919 5.60244 29.6921 6.32616 31.0957 7.7736C32.4993 9.21182 33.2012 11.0326 33.2012 13.2361C33.2012 15.4579 32.4902 17.3018 31.0684 18.7677C29.6556 20.2243 27.8737 20.9527 25.7227 20.9527C24.3919 20.9527 23.1204 20.6484 21.9082 20.0399C20.7051 19.4315 19.7891 18.5418 19.1602 17.3709C18.5312 16.1909 18.2168 14.7573 18.2168 13.0701ZM22.1543 13.2775C22.1543 14.7342 22.4961 15.8497 23.1797 16.6242C23.8633 17.3986 24.7064 17.7858 25.709 17.7858C26.7116 17.7858 27.5501 17.3986 28.2246 16.6242C28.9082 15.8497 29.25 14.725 29.25 13.2499C29.25 11.8117 28.9082 10.7054 28.2246 9.93093C27.5501 9.1565 26.7116 8.76929 25.709 8.76929C24.7064 8.76929 23.8633 9.1565 23.1797 9.93093C22.4961 10.7054 22.1543 11.8209 22.1543 13.2775Z" fill="black"/>
<path d="M45.7793 20.6208V18.4219C45.2507 19.2056 44.5534 19.8233 43.6875 20.275C42.8307 20.7268 41.9238 20.9527 40.9668 20.9527C39.9915 20.9527 39.1165 20.736 38.3418 20.3027C37.5671 19.8694 37.0065 19.2609 36.6602 18.4773C36.3138 17.6936 36.1406 16.6103 36.1406 15.2274V5.93434H39.9824V12.6829C39.9824 14.748 40.0508 16.0157 40.1875 16.4859C40.3333 16.9468 40.5931 17.3156 40.9668 17.5922C41.3405 17.8596 41.8145 17.9932 42.3887 17.9932C43.0449 17.9932 43.6328 17.8135 44.1523 17.4539C44.6719 17.0851 45.0273 16.6334 45.2188 16.0987C45.4102 15.5547 45.5059 14.2318 45.5059 12.1297V5.93434H49.3477V20.6208H45.7793Z" fill="black"/>
<path d="M57.0176 20.6208H53.1758V5.93434H56.7441V8.02252C57.3548 7.03605 57.9017 6.38609 58.3848 6.07263C58.877 5.75917 59.4329 5.60244 60.0527 5.60244C60.9277 5.60244 61.7708 5.84675 62.582 6.33538L61.3926 9.72349C60.7454 9.2994 60.1439 9.08735 59.5879 9.08735C59.0501 9.08735 58.5944 9.23947 58.2207 9.54371C57.847 9.83873 57.5508 10.3781 57.332 11.1617C57.1224 11.9454 57.0176 13.5864 57.0176 16.0848V20.6208Z" fill="black"/>
<path d="M72.1797 20.6208V0.51336H76.2266V17.205H86.2891V20.6208H72.1797Z" fill="black"/>
<path d="M88.2715 13.0701C88.2715 11.7794 88.5859 10.5302 89.2148 9.32245C89.8438 8.11471 90.7324 7.19278 91.8809 6.55664C93.0384 5.92051 94.3281 5.60244 95.75 5.60244C97.9466 5.60244 99.7467 6.32616 101.15 7.7736C102.554 9.21182 103.256 11.0326 103.256 13.2361C103.256 15.4579 102.545 17.3018 101.123 18.7677C99.7103 20.2243 97.9284 20.9527 95.7773 20.9527C94.4466 20.9527 93.1751 20.6484 91.9629 20.0399C90.7598 19.4315 89.8438 18.5418 89.2148 17.3709C88.5859 16.1909 88.2715 14.7573 88.2715 13.0701ZM92.209 13.2775C92.209 14.7342 92.5508 15.8497 93.2344 16.6242C93.918 17.3986 94.7611 17.7858 95.7637 17.7858C96.7663 17.7858 97.6048 17.3986 98.2793 16.6242C98.9629 15.8497 99.3047 14.725 99.3047 13.2499C99.3047 11.8117 98.9629 10.7054 98.2793 9.93093C97.6048 9.1565 96.7663 8.76929 95.7637 8.76929C94.7611 8.76929 93.918 9.1565 93.2344 9.93093C92.5508 10.7054 92.209 11.8209 92.209 13.2775Z" fill="black"/>
<path d="M105.922 21.5888L110.311 22.1281C110.383 22.6444 110.552 22.9994 110.816 23.193C111.181 23.4695 111.755 23.6078 112.539 23.6078C113.542 23.6078 114.294 23.4557 114.795 23.1515C115.132 22.9486 115.387 22.6214 115.561 22.1696C115.679 21.8469 115.738 21.2523 115.738 20.3857V18.2422C114.59 19.8279 113.141 20.6208 111.391 20.6208C109.44 20.6208 107.895 19.7864 106.756 18.1177C105.863 16.7993 105.416 15.1583 105.416 13.1946C105.416 10.733 105.999 8.85226 107.166 7.55233C108.342 6.25241 109.8 5.60244 111.541 5.60244C113.337 5.60244 114.818 6.39991 115.984 7.99486V5.93434H119.58V19.1134C119.58 20.8466 119.439 22.142 119.156 22.9994C118.874 23.8568 118.477 24.5298 117.967 25.0184C117.456 25.507 116.773 25.8896 115.916 26.1662C115.068 26.4428 113.993 26.5811 112.689 26.5811C110.229 26.5811 108.483 26.1524 107.453 25.295C106.423 24.4468 105.908 23.3681 105.908 22.059C105.908 21.9299 105.913 21.7732 105.922 21.5888ZM109.354 12.9733C109.354 14.5314 109.65 15.6746 110.242 16.4029C110.844 17.122 111.582 17.4816 112.457 17.4816C113.396 17.4816 114.189 17.1128 114.836 16.3753C115.483 15.6285 115.807 14.5268 115.807 13.0701C115.807 11.5489 115.497 10.4196 114.877 9.682C114.257 8.94445 113.473 8.57568 112.525 8.57568C111.605 8.57568 110.844 8.93985 110.242 9.66817C109.65 10.3873 109.354 11.489 109.354 12.9733Z" fill="black"/>
<path d="M122.506 13.0701C122.506 11.7794 122.82 10.5302 123.449 9.32245C124.078 8.11471 124.967 7.19278 126.115 6.55664C127.273 5.92051 128.562 5.60244 129.984 5.60244C132.181 5.60244 133.981 6.32616 135.385 7.7736C136.788 9.21182 137.49 11.0326 137.49 13.2361C137.49 15.4579 136.779 17.3018 135.357 18.7677C133.945 20.2243 132.163 20.9527 130.012 20.9527C128.681 20.9527 127.41 20.6484 126.197 20.0399C124.994 19.4315 124.078 18.5418 123.449 17.3709C122.82 16.1909 122.506 14.7573 122.506 13.0701ZM126.443 13.2775C126.443 14.7342 126.785 15.8497 127.469 16.6242C128.152 17.3986 128.995 17.7858 129.998 17.7858C131.001 17.7858 131.839 17.3986 132.514 16.6242C133.197 15.8497 133.539 14.725 133.539 13.2499C133.539 11.8117 133.197 10.7054 132.514 9.93093C131.839 9.1565 131.001 8.76929 129.998 8.76929C128.995 8.76929 128.152 9.1565 127.469 9.93093C126.785 10.7054 126.443 11.8209 126.443 13.2775Z" fill="black"/>
</svg>
